<svg width="32" height="32" viewBox="0 0 32 32" fill="none" xmlns="http://www.w3.org/2000/svg">
<g clip-path="url(#clip0_620_20838)">
<g clip-path="url(#clip1_620_20838)">
<g clip-path="url(#clip2_620_20838)">
<mask id="mask0_620_20838" style="mask-type:luminance" maskUnits="userSpaceOnUse" x="0" y="0" width="32" height="32">
<path d="M32 0H0V32.0002H32V0Z" fill="white"/>
</mask>
<g mask="url(#mask0_620_20838)">
<path d="M15.7957 27.8542C22.0956 27.8542 27.2027 22.7499 27.2027 16.4534C27.2027 10.157 22.0956 5.05273 15.7957 5.05273C9.49577 5.05273 4.38867 10.157 4.38867 16.4534C4.38867 22.7499 9.49577 27.8542 15.7957 27.8542Z" fill="#FD4130"/>
<path d="M27.3922 12.8258C27.3371 12.8571 27.2801 12.8883 27.2194 12.9213C26.8682 13.1106 26.4804 13.3072 26.0722 13.5001C25.6623 12.0817 24.9802 10.8121 24.0978 9.7317C22.8165 11.2825 21.3844 12.9746 19.3034 13.9631C19.1582 13.4468 19.0332 13.0242 18.9192 12.6439L18.888 12.5429C20.6271 11.6462 21.8734 10.1359 23.0868 8.66787V8.65689C21.2944 6.99956 18.9597 5.98169 16.4797 5.83287C16.4264 5.71161 16.3749 5.59402 16.3235 5.47643C16.1911 5.17878 16.0551 4.87745 15.9153 4.58348L15.8105 4.35749C19.7612 4.34462 23.4765 6.28486 25.734 9.47636C25.9215 9.74091 26.0999 10.0128 26.2653 10.2958C26.5337 10.7496 26.7745 11.2254 26.9841 11.7198C27.0999 11.9935 27.2084 12.2746 27.3058 12.5612C27.3352 12.6495 27.3646 12.7358 27.3922 12.8239V12.8258Z" fill="#F5F3EF"/>
<path d="M17.9408 21.9434C18.0235 22.3935 18.0989 22.8234 18.1632 23.2239C18.1742 23.2901 18.1853 23.3563 18.1945 23.4224C16.5785 24.139 14.6188 25.2469 12.4625 26.5257C14.3762 27.1724 16.4958 27.2827 18.5897 26.7259C18.6228 27.1889 18.6412 27.6134 18.6467 27.9919C18.6467 28.0691 18.6485 28.1425 18.6467 28.2142C18.3048 28.295 17.961 28.3612 17.6191 28.4108C17.0896 28.4916 16.562 28.5339 16.0381 28.5412C15.7145 28.5467 15.3909 28.5394 15.0692 28.5173C10.9476 28.2491 7.18085 25.8679 5.19727 22.1932C5.38846 22.1804 5.57597 22.1675 5.76164 22.151C5.98041 22.1344 6.20101 22.1142 6.43081 22.0903C6.55215 22.0774 6.67532 22.0646 6.80032 22.0499C7.79303 23.6539 9.18837 24.9401 10.808 25.8128C13.5857 24.1518 15.9756 22.7701 17.9353 21.9434H17.9408Z" fill="#F5F3EF"/>
<path d="M16.2533 14.7866C14.2403 14.9667 12.2862 14.5055 10.2419 14.0242C8.78773 13.6824 7.28947 13.3296 5.72137 13.2065C5.13494 15.0273 5.03199 17.0227 5.52099 19.0052C5.06692 19.0419 4.63674 19.0658 4.2415 19.0768C4.17348 19.0768 4.10729 19.0805 4.04295 19.0805C4.02273 18.9905 4.00251 18.9005 3.98596 18.8086C3.92713 18.511 3.8775 18.2151 3.84257 17.9193C3.77455 17.3865 3.74514 16.8536 3.75065 16.3263C3.75433 15.9993 3.77088 15.6741 3.80029 15.3507C4.13303 11.7605 6.06882 8.47355 9.05803 6.44326C9.32271 6.26321 9.59478 6.09233 9.87605 5.93432C10.3283 5.67709 10.8026 5.44742 11.2953 5.24716C11.5692 5.13691 11.8505 5.03402 12.1354 4.94399C12.2585 4.90357 12.3817 4.86683 12.5068 4.83008C12.538 4.88887 12.5711 4.95134 12.6042 5.01565C12.7881 5.36107 12.9774 5.74508 13.1704 6.16031C13.1465 6.16582 13.1226 6.17134 13.0987 6.17869C10.0066 7.00736 7.59648 9.12393 6.29127 11.7936C7.79507 11.9498 9.2051 12.2823 10.5783 12.6057C12.3928 13.032 14.1264 13.4417 15.8342 13.3517C15.9776 13.8184 16.1191 14.3016 16.257 14.7866H16.2533Z" fill="#F5F3EF"/>
<path d="M27.9451 16.1016C28.0756 20.5865 25.6784 24.8051 21.7737 26.9952C21.7608 26.7527 21.7443 26.4973 21.7222 26.2345C21.7094 26.0802 21.6965 25.9241 21.68 25.7697C21.6671 25.6393 21.6543 25.5069 21.6414 25.3728C22.8381 24.5957 23.8511 23.5924 24.6361 22.4423C23.2977 22.3725 22.1855 22.3964 21.2498 22.5157C21.1781 22.0784 21.0954 21.6081 20.9961 21.0808C22.2076 20.9191 23.6617 20.9063 25.4468 21.033C26.0755 19.7212 26.4377 18.2751 26.4854 16.7851C26.5994 16.7337 26.7152 16.6822 26.8273 16.6326C27.0351 16.5389 27.2373 16.4452 27.4322 16.3515C27.6032 16.2706 27.7723 16.188 27.9432 16.1035L27.9451 16.1016Z" fill="#F5F3EF"/>
<path d="M31.3185 11.6341C31.5024 12.3195 31.3185 13.4182 27.8826 15.1803C27.629 15.3089 27.3588 15.443 27.0701 15.5808C26.8771 15.6727 26.6785 15.7627 26.4763 15.8564C24.5387 16.7291 22.1635 17.6037 19.5677 18.4011C19.7883 19.3657 19.9869 20.3083 20.1579 21.2214C20.2498 21.7102 20.3362 22.1879 20.4116 22.6564C20.5991 23.79 20.7406 24.8631 20.8326 25.8479C20.8473 26.0022 20.8601 26.1547 20.873 26.3054C20.9061 26.7041 20.9281 27.0752 20.941 27.4188C21.0936 31.0898 20.2516 31.7751 19.5788 31.9552C18.5125 32.24 17.3838 31.1541 16.0418 28.5414C16.5657 28.5341 17.0934 28.4918 17.6228 28.411C18.4868 29.9819 19.0089 30.4008 19.1928 30.5074C19.3306 30.274 19.5218 29.5519 19.4979 27.9773C19.4924 27.5419 19.4685 27.0403 19.4226 26.4652C19.4078 26.2925 19.3931 26.1143 19.3748 25.9306C19.2902 25.0486 19.1652 24.0969 19.0015 23.0882C18.9262 22.6123 18.8398 22.1235 18.746 21.6257C18.5769 20.718 18.382 19.7773 18.1633 18.8163C17.6485 18.9651 17.1264 19.1103 16.6007 19.2518C12.8577 20.255 9.24904 20.9532 6.34996 21.2435C6.12752 21.2656 5.9106 21.2857 5.69735 21.3023C5.37931 21.328 5.07598 21.3482 4.79287 21.3629C0.935993 21.554 0.228227 20.6941 0.044391 20.0088C-0.251585 18.9045 0.926805 17.7341 3.75052 16.3267C3.74501 16.8541 3.77442 17.3851 3.8406 17.9179C2.06291 18.8623 1.60699 19.4282 1.49302 19.6229C1.73752 19.7681 2.52066 19.972 4.26158 19.9243C4.69911 19.9114 5.19731 19.8839 5.76168 19.8361C5.8628 19.8269 5.96758 19.8177 6.07237 19.8067C8.91448 19.5329 12.5195 18.8366 16.222 17.8444C16.7624 17.6993 17.2974 17.5504 17.8268 17.3979C17.6945 16.8633 17.5566 16.3267 17.4114 15.7866C17.3102 15.4118 17.2091 15.0406 17.1044 14.6713C16.9702 14.1955 16.8323 13.7251 16.6926 13.262C15.8653 10.5262 14.948 8.01462 14.038 6.01924L14.0196 5.97515C13.7843 5.46068 13.5619 5.01053 13.356 4.61918C12.4643 2.9178 11.8503 2.2931 11.5911 2.14612C11.4753 2.34638 11.1977 3.06663 11.2952 5.24572C10.8025 5.44599 10.33 5.67566 9.87592 5.93289C9.5855 1.6482 10.4844 0.891207 11.2014 0.698286C11.9184 0.505367 13.0397 0.70564 14.8818 4.39502C14.9682 4.56958 15.0583 4.75331 15.1483 4.94623C15.2807 5.22551 15.4149 5.51764 15.5473 5.81897C16.4315 7.81432 17.3084 10.2451 18.1063 12.8909C18.246 13.3521 18.382 13.8206 18.5162 14.2928C18.6192 14.6603 18.7221 15.0333 18.8232 15.4081C18.9648 15.9354 19.1008 16.4609 19.2295 16.9808C21.7812 16.1926 24.1177 15.3291 25.9984 14.4729C26.0958 14.4288 26.1895 14.3846 26.2815 14.3424C26.7962 14.1017 27.2411 13.8775 27.6253 13.6699C29.1566 12.8413 29.732 12.2717 29.8717 12.0255C29.6769 11.9135 29.0004 11.6526 26.9874 11.7224C26.7778 11.2281 26.537 10.7523 26.2686 10.2984C30.3902 10.0467 31.131 10.9323 31.3204 11.636L31.3185 11.6341Z" fill="#F5F3EF"/>
<path d="M24.0988 5.72139C23.1668 4.98278 22.1282 4.38381 21.0215 3.94468L24.0988 2.16797V5.71956V5.72139Z" fill="#FD4130"/>
<path d="M7.59766 27.1816C8.52971 27.9203 9.56833 28.5192 10.6751 28.9584L7.59766 30.7351V27.1835V27.1816Z" fill="#FD4130"/>
<path d="M26.584 24.6968C27.3231 23.7653 27.9223 22.7272 28.3617 21.6211L30.1394 24.6968H26.5858H26.584Z" fill="#FD4130"/>
<path d="M5.11202 8.20508C4.37301 9.1366 3.7737 10.1747 3.33433 11.2808L1.55664 8.20508H5.11019H5.11202Z" fill="#FD4130"/>
</g>
</g>
</g>
</g>
<defs>
<clipPath id="clip0_620_20838">
<rect width="32" height="32" fill="white"/>
</clipPath>
<clipPath id="clip1_620_20838">
<rect width="32" height="32" fill="white"/>
</clipPath>
<clipPath id="clip2_620_20838">
<rect width="32" height="32" fill="white"/>
</clipPath>
</defs>
</svg>
